<svg width="517" height="190" viewBox="0 0 517 190" fill="none" xmlns="http://www.w3.org/2000/svg">
<g clip-path="url(#clip0_1701_284)">
<path fill-rule="evenodd" clip-rule="evenodd" d="M490.45 0C493.457 0 496.003 8.33185 496.943 19.95C507.388 16.4878 515.586 15.8931 516.845 18.7748C517.921 21.2307 513.314 25.6183 505.83 30.1713C513.3 34.8193 517.805 39.3476 516.88 41.8422C515.79 44.7767 507.49 44.0061 496.886 40.3715C495.902 51.6167 493.39 59.6072 490.45 59.6072C487.51 59.6072 484.999 51.6167 484.018 40.3715C473.41 44.0061 465.114 44.7767 464.02 41.8422C463.088 39.3476 467.604 34.8193 475.07 30.1713C467.586 25.6183 462.979 21.2307 464.059 18.7713C465.325 15.8931 473.519 16.4948 483.958 19.95C484.897 8.33185 487.454 0 490.45 0ZM504.617 30.8926C502.206 32.301 499.743 33.6191 497.234 34.8439C497.206 35.6602 497.161 36.4624 497.118 37.2541C504.515 39.4883 509.449 39.5165 510.416 37.6693C511.144 36.283 508.756 33.7496 504.624 30.9031L504.617 30.8926ZM477.437 28.7393C479.467 27.5644 481.538 26.4613 483.645 25.4319C483.705 23.7641 483.789 22.1456 483.909 20.5763C474.159 17.1704 466.232 16.5265 465.156 18.4969C464.161 20.3124 468.884 24.1617 477.437 28.7463V28.7393ZM476.287 30.8926C478.542 32.2191 481.025 33.5491 483.666 34.8333C483.697 35.6531 483.74 36.4519 483.782 37.247C476.389 39.4778 471.451 39.5094 470.484 37.6622C469.756 36.2759 472.144 33.7426 476.28 30.8926H476.287ZM484.897 35.4385L486.733 36.2935C486.163 36.4906 485.604 36.677 485.059 36.8565C484.999 36.3847 484.948 35.912 484.904 35.4385H484.897ZM490.45 37.9156C492.145 38.6263 493.812 39.2702 495.43 39.8578C494.354 46.5078 492.525 50.8919 490.45 50.8919C488.375 50.8919 486.55 46.5183 485.474 39.8578C487.088 39.2702 488.755 38.6263 490.457 37.9156H490.45ZM503.467 28.7393C501.435 27.5652 499.364 26.462 497.256 25.4319C497.201 23.8118 497.114 22.1929 496.995 20.5763C506.741 17.1704 514.668 16.5265 515.744 18.4969C516.743 20.3124 512.02 24.1617 503.467 28.7463V28.7393ZM496.45 25.0413C494.789 24.2348 493.106 23.4746 491.403 22.7613L491.484 22.7296C493.13 22.0259 494.751 21.382 496.334 20.8156C496.397 22.1878 496.443 23.6022 496.457 25.0413H496.45ZM490.45 22.3602C488.525 21.5678 486.576 20.8367 484.605 20.1681C485.231 9.14111 487.612 0.932407 490.45 0.932407C493.288 0.932407 495.669 9.14111 496.295 20.1681C494.41 20.805 492.451 21.5439 490.45 22.3602ZM478.622 29.3691C480.166 30.1783 481.826 31.0017 483.588 31.8391C483.562 30.0634 483.571 28.2873 483.617 26.512C481.826 27.4656 480.152 28.4226 478.629 29.3691H478.622ZM484.651 32.3422C486.562 33.2389 488.495 34.0859 490.45 34.8826C492.008 34.2598 493.633 33.5596 495.307 32.7785L496.253 32.3422C496.383 30.3367 496.45 28.2361 496.457 26.0722C494.483 25.052 492.48 24.0899 490.45 23.187C488.368 24.1089 486.353 25.08 484.447 26.0722C484.447 28.2361 484.517 30.3402 484.651 32.3422ZM494.178 36.283C494.744 36.4835 495.307 36.67 495.852 36.8459C495.909 36.385 495.961 35.9065 496.003 35.428L494.178 36.283ZM502.278 29.362C500.651 28.3515 498.988 27.3986 497.294 26.505C497.341 28.2803 497.35 30.0564 497.322 31.832C499.084 30.9946 500.737 30.1713 502.285 29.362H502.278ZM489.497 22.7543L489.423 22.7226C487.827 22.0344 486.211 21.3949 484.577 20.805C484.51 22.1772 484.468 23.5846 484.454 25.0343C486.116 24.2336 487.798 23.4734 489.497 22.7543Z" fill="white"/>
<path d="M0 130.53H19.02L23.5604 113.768H47.1244L51.7774 130.53H70.7974L45.1232 50.6174H25.6812L0.00703401 130.53H0ZM27.8899 98.1209L32.2228 82.5796C33.6015 77.5517 35.2897 68.8363 35.2897 68.8363H35.5007C35.5007 68.8363 37.1888 77.5517 38.564 82.5796L42.7949 98.1209H27.8899ZM70.2276 90.4048C70.2276 116.561 87.9815 131.871 107.314 131.871C114.711 131.871 122.638 129.189 127.178 124.939H127.39C127.39 124.939 127.288 126.617 127.288 128.289V130.523H142.713V85.3663H115.664V102.023H126.334V108.17C122.005 111.741 116.508 113.982 111.011 113.982C99.2851 113.982 89.3496 104.926 89.3496 89.7257C89.3496 77.8754 95.7927 67.1474 111.647 67.1474C118.087 67.1474 125.701 70.3915 130.031 74.5257L138.904 59.8781C130.875 52.3942 120.095 49.2592 109.847 49.2592C86.8173 49.2592 70.2276 67.1474 70.2276 90.3978V90.4048ZM145.21 130.53H164.23L168.771 113.768H192.335L196.984 130.53H216.004L190.33 50.6174H170.891L145.217 130.53H145.21ZM173.1 98.1209L177.433 82.5796C178.808 77.5517 180.496 68.8363 180.496 68.8363H180.707C180.707 68.8363 182.396 77.5517 183.774 82.5796L188.002 98.1209H173.104H173.1ZM231.493 130.53H249.982V67.3796H272.913V50.6174H208.566V67.3796H231.496L231.493 130.53ZM279.637 130.53H328.45V113.768H298.126V98.6733H321.156V81.9111H298.126V67.3796H326.973V50.6174H279.634L279.637 130.53ZM332.428 90.4048C332.428 114.099 347.751 131.871 372.047 131.871C385.886 131.871 395.822 125.724 402.472 118.454L392.966 104.148C387.792 109.623 380.396 113.982 372.891 113.982C358.313 113.982 351.549 101.801 351.549 89.9509C351.549 78.4383 357.782 67.1509 372.891 67.1509C379.654 67.1509 386.948 70.8383 391.802 75.3139L400.362 60.5572C392.966 52.8517 382.186 49.2698 372.047 49.2698C348.694 49.2698 332.428 67.1615 332.428 90.4048ZM409.418 130.53H427.907V99.2363H455.379V130.53H473.867V50.6174H455.379V82.5796H427.907V50.6174H409.418V130.53Z" fill="white"/>
<path fill-rule="evenodd" clip-rule="evenodd" d="M231.834 139.784H473.839V186.58H231.834V139.784Z" fill="#F6F7FC"/>
<path d="M244.291 173.766H251.09C257.304 173.766 261.412 169.79 261.412 162.939C261.412 156.117 257.304 152.172 251.09 152.172H244.291V173.776V173.766ZM247.151 171.134V154.801H250.879C255.419 154.801 258.454 157.64 258.454 162.939C258.454 168.291 255.451 171.137 250.879 171.137L247.151 171.134ZM264.926 173.766H267.788V152.165H264.926V173.766ZM271.281 162.939C271.281 169.547 275.825 174.135 281.318 174.135C283.837 174.135 286.203 173.034 287.593 171.503H287.652C287.652 171.503 287.624 171.964 287.624 172.418V173.766H290.143V162.907H284.216V165.543H287.515V168.66C286.038 170.286 283.928 171.355 281.726 171.355C277.474 171.355 274.235 167.869 274.235 162.886C274.235 158.295 277.126 154.561 281.902 154.561C283.984 154.561 286.327 155.448 287.688 156.673L289.137 154.438C287.083 152.609 284.339 151.806 281.705 151.806C275.751 151.806 271.295 156.701 271.295 162.939H271.281ZM293.885 173.766H296.744V152.165H293.885V173.766ZM306.25 173.766H309.082V154.801H316.105V152.165H299.22V154.801H306.243V173.766H306.25ZM314.628 173.766H317.547L319.601 167.559H327.293L329.347 173.766H332.294L324.978 152.165H321.943L314.628 173.766ZM320.357 165.05L322.643 158.224C322.995 157.095 323.42 155.139 323.42 155.139H323.48C323.48 155.139 323.944 157.095 324.289 158.228L326.544 165.05H320.357ZM334.749 173.766H346.777V171.134H337.615V152.169H334.756V173.766H334.749ZM352.58 173.766H355.499L357.553 167.559H365.245L367.299 173.766H370.246L362.931 152.165H359.895L352.58 173.766ZM358.309 165.05L360.595 158.224C360.943 157.095 361.372 155.139 361.372 155.139H361.432C361.432 155.139 361.897 157.095 362.241 158.228L364.496 165.05H358.309ZM370.967 162.939C370.967 169.547 375.511 174.135 381.004 174.135C383.523 174.135 385.89 173.034 387.279 171.503H387.339C387.339 171.503 387.31 171.964 387.31 172.418V173.766H389.829V162.907H383.902V165.543H387.198V168.66C385.721 170.286 383.61 171.355 381.412 171.355C377.16 171.355 373.921 167.869 373.921 162.886C373.921 158.295 376.812 154.561 381.588 154.561C383.67 154.561 386.013 155.448 387.367 156.673L388.816 154.438C386.762 152.609 384.018 151.806 381.384 151.806C375.43 151.806 370.974 156.701 370.974 162.939H370.967ZM393.567 173.766H405.943V171.134H396.43V164.188H403.745V161.553H396.43V154.794H405.455V152.158H393.567V173.766ZM409.204 173.766H412.063V159.751C412.063 158.527 411.891 156.602 411.891 156.602H411.947C411.947 156.602 412.9 158.559 413.621 159.751L422.727 173.766H425.53V152.165H422.699V166.18C422.699 167.404 422.874 169.332 422.874 169.332H422.815C422.815 169.332 421.861 167.376 421.14 166.183L412.035 152.165H409.204V173.766ZM429.033 162.848C429.033 169.177 433.165 174.135 439.499 174.135C443.118 174.135 445.658 172.541 447.398 170.708L445.862 168.537C444.216 170.279 441.873 171.348 439.587 171.348C434.839 171.348 431.98 167.397 431.98 162.816C431.98 158.256 434.783 154.554 439.527 154.554C441.638 154.554 443.924 155.501 445.425 156.912L446.874 154.646C444.908 152.658 442.046 151.796 439.411 151.796C433.341 151.796 429.033 156.571 429.033 162.841V162.848ZM454.791 173.766H457.622V164.617L464.481 152.165H461.241L457.478 159.266C456.845 160.522 456.233 161.993 456.233 161.993H456.177C456.177 161.993 455.54 160.522 454.932 159.266L451.176 152.165H447.937L454.791 164.621V173.766Z" fill="#272727"/>
<path fill-rule="evenodd" clip-rule="evenodd" d="M35.6695 148.809L38.9227 159.804L49.8184 159.681L40.938 166.359L44.4198 177.277L35.666 170.398L26.9262 177.277L30.408 166.359L21.5241 159.681L32.4127 159.804L35.6695 148.809ZM71.9509 148.809L75.2077 159.804L86.1033 159.681L77.2229 166.359L80.7047 177.277L71.9509 170.398L63.2112 177.277L66.6895 166.359L57.809 159.681L68.6977 159.804L71.9509 148.809ZM108.239 148.809L111.493 159.804L122.388 159.681L113.501 166.359L116.983 177.277L108.239 170.398L99.4961 177.277L102.978 166.359L94.094 159.681L104.986 159.804L108.239 148.809ZM144.524 148.809L147.778 159.804L158.677 159.681L149.789 166.359L153.268 177.277L144.524 170.398L135.781 177.277L139.263 166.359L130.382 159.681L141.271 159.804L144.524 148.809ZM180.809 148.809L184.063 159.804L194.962 159.681L186.074 166.359L189.553 177.277L180.809 170.398L172.07 177.277L175.548 166.359L166.66 159.681L177.556 159.804L180.809 148.809Z" fill="white"/>
</g>
<defs>
<clipPath id="clip0_1701_284">
<rect width="517" height="190" fill="white"/>
</clipPath>
</defs>
</svg>
