<svg width="36" height="36" viewBox="0 0 36 36" fill="none" xmlns="http://www.w3.org/2000/svg">
<path d="M33.9552 5.83795L31.6892 7.60982C28.5994 3.66027 23.7941 1.125 18.3981 1.125C9.08069 1.125 1.53917 8.65848 1.52711 17.9799C1.51506 27.3094 9.07265 34.875 18.3981 34.875C25.6825 34.875 31.8901 30.2545 34.2526 23.7817C34.3128 23.6129 34.2244 23.4241 34.0557 23.3679L31.7776 22.5844C31.6981 22.5571 31.6112 22.5621 31.5354 22.5981C31.4595 22.6342 31.4008 22.6985 31.3718 22.7772C31.2994 22.9781 31.2191 23.179 31.1347 23.3759C30.4396 25.0232 29.4432 26.5018 28.1735 27.7714C26.9141 29.0332 25.423 30.04 23.782 30.7366C22.0825 31.4558 20.2704 31.8214 18.4061 31.8214C16.5378 31.8214 14.7298 31.4558 13.0302 30.7366C11.3876 30.0429 9.89599 29.0358 8.63872 27.7714C7.37591 26.5122 6.37017 25.0193 5.67756 23.3759C4.95836 21.6723 4.59274 19.8643 4.59274 17.996C4.59274 16.1277 4.95836 14.3196 5.67756 12.6161C6.37265 10.9688 7.36908 9.49018 8.63872 8.22054C9.90836 6.95089 11.3869 5.95446 13.0302 5.25536C14.7298 4.53616 16.5418 4.17054 18.4061 4.17054C20.2744 4.17054 22.0825 4.53616 23.782 5.25536C25.4246 5.94902 26.9163 6.95619 28.1735 8.22054C28.5713 8.6183 28.945 9.04018 29.2905 9.48214L26.8718 11.3705C26.8239 11.4076 26.7875 11.4573 26.7666 11.5141C26.7458 11.571 26.7414 11.6325 26.754 11.6917C26.7666 11.7508 26.7957 11.8053 26.8378 11.8487C26.88 11.8921 26.9335 11.9227 26.9923 11.9371L34.0477 13.6647C34.2485 13.7129 34.4454 13.5603 34.4454 13.3554L34.4776 6.08705C34.4735 5.82188 34.1642 5.67321 33.9552 5.83795V5.83795Z" fill="white"/>
</svg>
