<svg width="36" height="36" viewBox="0 0 36 36" fill="none" xmlns="http://www.w3.org/2000/svg">
<path d="M31.9208 28.1042C31.1629 26.3089 30.063 24.6781 28.6824 23.3028C27.306 21.9235 25.6755 20.8238 23.881 20.0644C23.865 20.0564 23.8489 20.0524 23.8328 20.0443C26.336 18.2363 27.9632 15.2912 27.9632 11.9684C27.9632 6.46397 23.5034 2.00415 17.9989 2.00415C12.4944 2.00415 8.03462 6.46397 8.03462 11.9684C8.03462 15.2912 9.66185 18.2363 12.165 20.0483C12.1489 20.0564 12.1328 20.0604 12.1168 20.0684C10.3168 20.8278 8.70158 21.9167 7.31542 23.3068C5.93613 24.6832 4.83642 26.3137 4.07703 28.1082C3.331 29.865 2.92865 31.7485 2.89176 33.6568C2.89069 33.6997 2.89821 33.7424 2.91388 33.7823C2.92956 33.8222 2.95306 33.8586 2.98302 33.8893C3.01297 33.92 3.04877 33.9444 3.0883 33.9611C3.12783 33.9777 3.1703 33.9863 3.21319 33.9863H5.62391C5.80069 33.9863 5.94132 33.8457 5.94533 33.6729C6.02569 30.5711 7.27123 27.6662 9.47301 25.4644C11.7511 23.1863 14.7766 21.9327 17.9989 21.9327C21.2212 21.9327 24.2467 23.1863 26.5248 25.4644C28.7266 27.6662 29.9721 30.5711 30.0525 33.6729C30.0565 33.8497 30.1971 33.9863 30.3739 33.9863H32.7846C32.8275 33.9863 32.87 33.9777 32.9095 33.9611C32.949 33.9444 32.9848 33.92 33.0148 33.8893C33.0447 33.8586 33.0683 33.8222 33.0839 33.7823C33.0996 33.7424 33.1071 33.6997 33.106 33.6568C33.0659 31.7363 32.6681 29.868 31.9208 28.1042V28.1042ZM17.9989 18.8792C16.1547 18.8792 14.419 18.16 13.1132 16.8542C11.8074 15.5483 11.0882 13.8126 11.0882 11.9684C11.0882 10.1242 11.8074 8.38853 13.1132 7.08272C14.419 5.77692 16.1547 5.05772 17.9989 5.05772C19.8431 5.05772 21.5788 5.77692 22.8846 7.08272C24.1904 8.38853 24.9096 10.1242 24.9096 11.9684C24.9096 13.8126 24.1904 15.5483 22.8846 16.8542C21.5788 18.16 19.8431 18.8792 17.9989 18.8792Z" fill="white"/>
</svg>
